<svg xmlns="http://www.w3.org/2000/svg" version="1.1">
    <rect x="0" y="0" width="640" height="550"
          style="fill:gray;stroke:black;stroke-width:2;opacity:1"/>

    <rect x="20" y="20" rx="20" ry="20" width="415" height="500"
          style="fill:lightgoldenrodyellow;stroke:black;stroke-width:2;opacity:1"/>

    <rect x="40" y="50" width="375" height="60"
          style="fill:lightgrey;stroke:black;stroke-width:2;opacity:1"/>


    <rect x="45" y="60" width="20" height="40"
          style="fill:white;stroke:white;"/>

    <rect x="68" y="60" width="20" height="40"
          style="fill:white;stroke:white;"/>
    
    <rect x="91" y="60" width="20" height="40"
          style="fill:white;stroke:white;"/>

    <rect x="114" y="60" width="20" height="40"
          style="fill:white;stroke:white;"/>


    <rect x="137" y="60" width="20" height="40"
          style="fill:white;stroke:white;"/>

    <rect x="160" y="60" width="20" height="40"
          style="fill:white;stroke:white;"/>

    <rect x="183" y="60" width="20" height="40"
          style="fill:white;stroke:white;"/>

    <rect x="206" y="60" width="20" height="40"
          style="fill:white;stroke:white;"/>


    <rect x="229" y="60" width="20" height="40"
          style="fill:white;stroke:white;"/>

    <rect x="252" y="60" width="20" height="40"
          style="fill:white;stroke:white;"/>

    <rect x="275" y="60" width="20" height="40"
          style="fill:white;stroke:white;"/>

    <rect x="298" y="60" width="20" height="40"
          style="fill:white;stroke:white;"/>

    <rect x="321" y="60" width="20" height="40"
          style="fill:white;stroke:white;"/>

    <rect x="344" y="60" width="20" height="40"
          style="fill:white;stroke:white;"/>

    <rect x="367" y="60" width="20" height="40"
          style="fill:white;stroke:white;"/>

    <rect x="390" y="60" width="20" height="40"
          style="fill:gold;stroke:gold;"/>


    

    <rect x="60" y="330" rx="5" ry="5" width="50" height="50"
          style="fill:sienna;stroke:black;stroke-width:2;opacity:1"/>

    <rect x="60" y="400" rx="5" ry="5" width="50" height="50"
          style="fill:sienna;stroke:black;stroke-width:2;opacity:1"/>


    <rect x="95" y="200" rx="5" ry="5" width="50" height="50"
          style="fill:sienna;stroke:black;stroke-width:2;opacity:1"/>

    <rect x="175" y="160" rx="5" ry="5" width="50" height="50"
          style="fill:sienna;stroke:black;stroke-width:2;opacity:1"/>

    <rect x="255" y="170" rx="5" ry="5" width="50" height="50"
          style="fill:sienna;stroke:black;stroke-width:2;opacity:1"/>

    <rect x="335" y="200" rx="5" ry="5" width="50" height="50"
          style="fill:sienna;stroke:black;stroke-width:2;opacity:1"/>



</svg>
